<svg width="40" height="41" fill="none" xmlns="http://www.w3.org/2000/svg"><path fill-rule="evenodd" clip-rule="evenodd" d="M6.666 20.301a13.334 13.334 0 1 1 15 13.23v-9.896H25a1.667 1.667 0 0 0 0-3.334h-3.334v-3.333a1.666 1.666 0 0 1 1.667-1.667h.833a1.667 1.667 0 0 0 0-3.333h-.833a5 5 0 0 0-5 5v3.333H15a1.666 1.666 0 1 0 0 3.334h3.333v9.896a13.335 13.335 0 0 1-11.667-13.23zM20 36.968c9.205 0 16.666-7.462 16.666-16.667 0-9.205-7.461-16.666-16.666-16.666S3.333 11.096 3.333 20.3 10.795 36.968 20 36.968z" fill="#000"/></svg>