<svg width="41" height="40" fill="none" xmlns="http://www.w3.org/2000/svg"><path fill-rule="evenodd" clip-rule="evenodd" d="M7.167 20a13.333 13.333 0 1 1 15 13.23v-9.897h3.334a1.667 1.667 0 0 0 0-3.333h-3.334v-3.334A1.667 1.667 0 0 1 23.834 15h.833a1.666 1.666 0 1 0 0-3.334h-.833a5 5 0 0 0-5 5V20h-3.333a1.667 1.667 0 0 0 0 3.333h3.333v9.897A13.335 13.335 0 0 1 7.167 20zm13.334 16.666c9.205 0 16.666-7.461 16.666-16.666S29.706 3.333 20.501 3.333 3.834 10.795 3.834 20c0 9.205 7.462 16.666 16.667 16.666z" fill="#fff"/></svg>