<svg width="41" height="40" viewBox="0 0 41 40" fill="none" xmlns="http://www.w3.org/2000/svg">
<path fill-rule="evenodd" clip-rule="evenodd" d="M7.16732 20.0007C7.16756 17.4347 7.90817 14.9234 9.3003 12.768C10.6924 10.6125 12.6769 8.90456 15.0157 7.84901C17.3544 6.79346 19.9481 6.43516 22.4854 6.81711C25.0227 7.19905 27.3959 8.30502 29.3203 10.0023C31.2446 11.6996 32.6384 13.9161 33.3343 16.3858C34.0302 18.8556 33.9986 21.4737 33.2435 23.9259C32.4883 26.3782 31.0416 28.5605 29.0769 30.211C27.1123 31.8614 24.7131 32.9099 22.1673 33.2306V23.334H25.5007C25.9427 23.334 26.3666 23.1584 26.6792 22.8458C26.9917 22.5333 27.1673 22.1093 27.1673 21.6673C27.1673 21.2253 26.9917 20.8014 26.6792 20.4888C26.3666 20.1762 25.9427 20.0007 25.5007 20.0007H22.1673V16.6673C22.1673 16.2253 22.3429 15.8014 22.6555 15.4888C22.968 15.1762 23.392 15.0007 23.834 15.0007H24.6673C25.1093 15.0007 25.5333 14.8251 25.8458 14.5125C26.1584 14.1999 26.334 13.776 26.334 13.334C26.334 12.892 26.1584 12.468 25.8458 12.1555C25.5333 11.8429 25.1093 11.6673 24.6673 11.6673H23.834C22.5079 11.6673 21.2361 12.1941 20.2984 13.1318C19.3608 14.0695 18.834 15.3412 18.834 16.6673V20.0007H15.5007C15.0586 20.0007 14.6347 20.1762 14.3221 20.4888C14.0096 20.8014 13.834 21.2253 13.834 21.6673C13.834 22.1093 14.0096 22.5333 14.3221 22.8458C14.6347 23.1584 15.0586 23.334 15.5007 23.334H18.834V33.2306C15.6118 32.8243 12.6487 31.2561 10.5007 28.8202C8.35263 26.3844 7.16737 23.2483 7.16732 20.0007ZM20.5007 36.6673C29.7057 36.6673 37.1673 29.2057 37.1673 20.0007C37.1673 10.7957 29.7057 3.33398 20.5007 3.33398C11.2957 3.33398 3.83398 10.7957 3.83398 20.0007C3.83398 29.2057 11.2957 36.6673 20.5007 36.6673Z" fill="white"/>
</svg>
