<svg width="40" height="41" fill="none" xmlns="http://www.w3.org/2000/svg"><path d="M20 6.967c1.425 0 2.886.036 4.303.096l1.673.08 1.602.095 1.5.102 1.37.107a6.336 6.336 0 0 1 5.823 5.705l.067.708.125 1.517a67.83 67.83 0 0 1 .203 4.923 67.83 67.83 0 0 1-.203 4.924l-.125 1.516c-.022.244-.043.479-.067.709a6.337 6.337 0 0 1-5.825 5.704l-1.366.105-1.5.104-1.604.095-1.673.08c-1.434.062-2.868.094-4.303.096-1.435-.002-2.87-.034-4.304-.096l-1.673-.08-1.602-.095-1.5-.104-1.37-.105a6.337 6.337 0 0 1-5.823-5.704l-.067-.709-.125-1.516a67.767 67.767 0 0 1-.203-4.924c0-1.638.087-3.352.203-4.923l.125-1.517c.022-.243.044-.478.067-.708A6.337 6.337 0 0 1 9.55 7.447l1.368-.107 1.5-.102 1.603-.095 1.674-.08c1.434-.062 2.87-.094 4.305-.096zm0 3.333c-1.375 0-2.79.037-4.167.093l-1.63.079-1.565.091-1.47.1-1.347.105a3.003 3.003 0 0 0-2.776 2.705c-.195 2.015-.379 4.524-.379 6.827s.184 4.812.379 6.827c.141 1.453 1.295 2.583 2.776 2.705l1.347.103 1.47.1 1.565.093 1.63.079c1.377.056 2.792.093 4.167.093s2.79-.037 4.166-.093l1.63-.079 1.565-.091 1.47-.1 1.347-.105a3.003 3.003 0 0 0 2.777-2.705c.195-2.015.378-4.523.378-6.827 0-2.303-.183-4.812-.378-6.827a3.003 3.003 0 0 0-2.777-2.705l-1.347-.103-1.47-.1-1.565-.093-1.63-.079c-1.388-.06-2.777-.09-4.166-.093zm-3.334 5.959a1 1 0 0 1 1.365-.932l.135.066 7 4.04a1 1 0 0 1 .142 1.634l-.142.1-7 4.041a1.001 1.001 0 0 1-1.49-.716l-.01-.15v-8.083z" fill="#000"/></svg>