<svg width="41" height="40" fill="none" xmlns="http://www.w3.org/2000/svg"><path d="M20.5 6.667c1.426 0 2.887.037 4.304.097l1.673.08 1.602.095 1.5.101 1.37.107a6.337 6.337 0 0 1 5.823 5.705l.067.708.125 1.517A67.83 67.83 0 0 1 37.167 20a67.83 67.83 0 0 1-.203 4.924l-.125 1.516c-.022.244-.043.479-.067.709a6.336 6.336 0 0 1-5.825 5.705l-1.366.105-1.5.103-1.604.095-1.673.08c-1.434.062-2.868.094-4.303.097-1.435-.003-2.87-.035-4.304-.097l-1.673-.08-1.602-.095-1.5-.103-1.37-.105a6.337 6.337 0 0 1-5.823-5.705l-.067-.709-.125-1.516A67.772 67.772 0 0 1 3.834 20c0-1.638.087-3.351.203-4.923l.125-1.517c.022-.243.044-.478.067-.708a6.337 6.337 0 0 1 5.822-5.705l1.368-.107 1.5-.101 1.603-.095 1.674-.08c1.434-.063 2.87-.095 4.305-.097zm0 3.333c-1.374 0-2.79.037-4.166.094l-1.63.078-1.565.092-1.47.1-1.347.105a3.003 3.003 0 0 0-2.776 2.705c-.195 2.015-.379 4.523-.379 6.826 0 2.304.184 4.812.379 6.827.141 1.453 1.295 2.583 2.776 2.705l1.347.103 1.47.1 1.565.094 1.63.078c1.377.057 2.792.093 4.167.093s2.79-.036 4.166-.093l1.63-.078 1.565-.092 1.47-.1 1.347-.105a3.003 3.003 0 0 0 2.777-2.705c.195-2.015.378-4.523.378-6.827 0-2.303-.183-4.811-.378-6.826a3.004 3.004 0 0 0-2.777-2.705l-1.347-.104-1.47-.1-1.565-.093-1.63-.078c-1.388-.06-2.777-.091-4.166-.094zm-3.333 5.959a1 1 0 0 1 1.365-.932l.135.067 7 4.04a1 1 0 0 1 .142 1.633l-.142.1-7 4.042a1 1 0 0 1-1.49-.717l-.01-.15v-8.083z" fill="#fff"/></svg>