<svg width="41" height="40" viewBox="0 0 41 40" fill="none" xmlns="http://www.w3.org/2000/svg">
<g clip-path="url(#clip0_1291_1817)">
<path d="M9.59094 39.803V19.3035L4.79797 13.4873L0.5 10.2598V36.1854C0.5 38.187 1.72266 39.803 3.22734 39.803H9.59094Z" fill="#4285F4"/>
<path d="M31.4082 39.8028H37.7718C39.281 39.8028 40.4991 38.1808 40.4991 36.1852V10.2598L35.631 13.9566L31.4082 19.3033V39.8028Z" fill="#34A853"/>
<path d="M9.59164 19.3028L8.93945 11.2931L9.59164 3.62695L20.5007 14.4796L31.4098 3.62695L32.1393 10.8792L31.4098 19.3028L20.5007 30.1555L9.59164 19.3028Z" fill="#EA4335"/>
<path d="M31.4082 3.62771V19.3036L40.4991 10.2598V5.43641C40.4991 0.962838 36.6491 -1.58742 33.9538 1.09548L31.4082 3.62771Z" fill="#FBBC04"/>
<path d="M0.5 10.2599L4.68109 14.4195L9.59094 19.3037V3.6278L7.04531 1.09557C4.34531 -1.58753 0.5 0.962932 0.5 5.4363V10.2597V10.2599Z" fill="#C5221F"/>
</g>
<defs>
<clipPath id="clip0_1291_1817">
<rect width="40" height="40" fill="white" transform="translate(0.5)"/>
</clipPath>
</defs>
</svg>
