<svg width="61" height="40" fill="none" xmlns="http://www.w3.org/2000/svg"><g clip-path="url(#a)"><path d="M59.174 6.239a7.075 7.075 0 0 0-1.947-3.189 7.647 7.647 0 0 0-3.363-1.846C49.208 0 30.469 0 30.469 0S11.729.036 7.073 1.24A7.647 7.647 0 0 0 3.71 3.087a7.075 7.075 0 0 0-1.947 3.189C.355 14.12-.19 26.072 1.802 33.602a7.075 7.075 0 0 0 1.947 3.189 7.646 7.646 0 0 0 3.363 1.846c4.656 1.204 23.395 1.204 23.395 1.204s18.74 0 23.395-1.204a7.646 7.646 0 0 0 3.363-1.846 7.076 7.076 0 0 0 1.947-3.189c1.486-7.855 1.943-19.8-.038-27.363z" fill="red"/><path d="M24.506 28.457 40.05 19.92l-15.545-8.537v17.075z" fill="#fff"/></g><defs><clipPath id="a"><path fill="#fff" transform="translate(.5)" d="M0 0h60v40H0z"/></clipPath></defs></svg>