<svg width="51" height="50" fill="none" xmlns="http://www.w3.org/2000/svg"><g clip-path="url(#a)"><path d="M37.555 18.005c3.648 2.3 8.117 3.654 12.944 3.654v-8.194c-.914 0-1.825-.084-2.718-.252v6.451c-4.827 0-9.295-1.354-12.944-3.654v16.723c0 8.366-7.687 15.148-17.168 15.148-3.538 0-6.826-.944-9.558-2.563 3.118 2.813 7.466 4.558 12.275 4.558 9.482 0 17.17-6.782 17.17-15.148V18.005h-.001zm3.353-8.268c-1.864-1.797-3.088-4.12-3.353-6.687V1.996h-2.576c.648 3.263 2.86 6.051 5.93 7.741zM14.108 38.9c-1.041-1.205-1.604-2.68-1.602-4.195 0-3.826 3.516-6.929 7.854-6.929.808 0 1.611.11 2.382.325v-8.378c-.9-.109-1.81-.155-2.717-.138v6.52a8.83 8.83 0 0 0-2.384-.324c-4.337 0-7.853 3.102-7.853 6.93 0 2.705 1.757 5.048 4.32 6.189z" fill="#FF004F"/><path d="M34.837 16.01c3.65 2.3 8.117 3.654 12.944 3.654v-6.45c-2.694-.507-5.08-1.75-6.872-3.477-3.07-1.69-5.281-4.478-5.93-7.74h-6.766v32.73c-.015 3.817-3.525 6.906-7.853 6.906-2.55 0-4.817-1.072-6.252-2.734-2.562-1.141-4.32-3.484-4.32-6.19 0-3.826 3.516-6.928 7.853-6.928.832 0 1.632.114 2.384.324v-6.521c-9.315.17-16.806 6.885-16.806 15.144 0 4.123 1.865 7.86 4.893 10.59 2.731 1.619 6.02 2.563 9.557 2.563 9.482 0 17.168-6.782 17.168-15.148V16.01z" fill="#000"/><path d="M47.78 13.212v-1.744c-2.43.004-4.81-.597-6.872-1.732 1.825 1.762 4.227 2.978 6.872 3.476zM34.978 1.995c-.061-.312-.109-.626-.142-.941V0h-9.342v32.732c-.015 3.815-3.525 6.905-7.853 6.905a8.683 8.683 0 0 1-3.534-.74c1.435 1.663 3.701 2.735 6.252 2.735 4.328 0 7.838-3.09 7.853-6.905V1.995h6.766zM20.025 19.583v-1.857a19.607 19.607 0 0 0-2.356-.141C8.187 17.585.5 24.367.5 32.732c0 5.245 3.02 9.867 7.612 12.585-3.028-2.73-4.894-6.468-4.894-10.59 0-8.26 7.491-14.974 16.807-15.144z" fill="#00F2EA"/></g><defs><clipPath id="a"><path fill="#fff" transform="translate(.5)" d="M0 0h50v50H0z"/></clipPath></defs></svg>