<svg width="41" height="40" fill="none" xmlns="http://www.w3.org/2000/svg"><g clip-path="url(#a)"><path d="M40 20c0 9.53-6.838 17.465-15.875 19.163V26.282h4.59l.064-.424.887-5.781.088-.576h-5.629v-3.252c0-.718.177-1.366.576-1.827.388-.449 1.05-.796 2.183-.796h3.022V7.781l-.416-.07-.084.492.084-.493h-.002l-.005-.001-.021-.004-.08-.012a34.053 34.053 0 0 0-1.337-.181 28.068 28.068 0 0 0-3.116-.2c-2.385 0-4.412.725-5.844 2.158-1.432 1.433-2.21 3.518-2.21 6.124V19.5h-5.078v6.781h5.078v12.883C7.838 37.463 1 29.53 1 20 1 9.23 9.73.5 20.5.5S40 9.23 40 20z" fill="#1877F2" stroke="#fff"/><path d="M28.285 25.781 29.172 20h-5.547v-3.752c0-1.581.775-3.123 3.26-3.123h2.521V8.203s-2.288-.39-4.477-.39c-4.568 0-7.554 2.768-7.554 7.78V20h-5.078v5.781h5.078v13.976a20.148 20.148 0 0 0 6.25 0V25.781h4.66z" fill="#fff"/></g><defs><clipPath id="a"><path fill="#fff" transform="translate(.5)" d="M0 0h40v40H0z"/></clipPath></defs></svg>