<svg width="41" height="40" fill="none" xmlns="http://www.w3.org/2000/svg"><g clip-path="url(#a)"><path d="M9.59 39.803v-20.5l-4.792-5.816L.5 10.26v25.925c0 2.002 1.223 3.618 2.727 3.618h6.364z" fill="#4285F4"/><path d="M31.408 39.803h6.364c1.509 0 2.727-1.622 2.727-3.618V10.26l-4.868 3.697-4.223 5.346v20.5z" fill="#34A853"/><path d="m9.592 19.303-.653-8.01.653-7.666L20.5 14.48 31.41 3.627l.73 7.252-.73 8.424L20.5 30.155 9.593 19.303z" fill="#EA4335"/><path d="M31.408 3.628v15.676L40.5 10.26V5.436c0-4.473-3.85-7.023-6.545-4.34l-2.546 2.532z" fill="#FBBC04"/><path d="m.5 10.26 4.181 4.16 4.91 4.884V3.628L7.045 1.096C4.345-1.588.5.963.5 5.436v4.824z" fill="#C5221F"/></g><defs><clipPath id="a"><path fill="#fff" transform="translate(.5)" d="M0 0h40v40H0z"/></clipPath></defs></svg>