<svg width="41" height="41" fill="none" xmlns="http://www.w3.org/2000/svg"><g clip-path="url(#a)"><path d="M9.59 40.305v-20.5L4.799 13.99.5 10.762v25.925c0 2.002 1.223 3.618 2.727 3.618h6.364z" fill="#4285F4"/><path d="M31.408 40.305h6.364c1.509 0 2.727-1.622 2.727-3.618V10.762l-4.868 3.697-4.223 5.346v20.5z" fill="#34A853"/><path d="m9.592 19.805-.653-8.01.653-7.666L20.5 14.98 31.41 4.13l.73 7.252-.73 8.424L20.5 30.657 9.593 19.805z" fill="#EA4335"/><path d="M31.408 4.128v15.676L40.5 10.76V5.936c0-4.473-3.85-7.023-6.545-4.34l-2.546 2.532z" fill="#FBBC04"/><path d="m.5 10.76 4.181 4.16 4.91 4.884V4.128L7.045 1.596C4.345-1.088.5 1.463.5 5.936v4.824z" fill="#C5221F"/></g><defs><clipPath id="a"><path fill="#fff" transform="translate(.5 .5)" d="M0 0h40v40H0z"/></clipPath></defs></svg>