<svg width="41" height="41" viewBox="0 0 41 41" fill="none" xmlns="http://www.w3.org/2000/svg">
<g clip-path="url(#clip0_1290_1621)">
<path d="M9.59094 40.3049V19.8054L4.79797 13.9893L0.5 10.7617V36.6873C0.5 38.689 1.72266 40.3049 3.22734 40.3049H9.59094Z" fill="#4285F4"/>
<path d="M31.4082 40.3047H37.7718C39.281 40.3047 40.4991 38.6828 40.4991 36.6871V10.7617L35.631 14.4585L31.4082 19.8052V40.3047Z" fill="#34A853"/>
<path d="M9.59164 19.8048L8.93945 11.795L9.59164 4.12891L20.5007 14.9815L31.4098 4.12891L32.1393 11.3811L31.4098 19.8048L20.5007 30.6574L9.59164 19.8048Z" fill="#EA4335"/>
<path d="M31.4082 4.12771V19.8036L40.4991 10.7598V5.93641C40.4991 1.46284 36.6491 -1.08742 33.9538 1.59548L31.4082 4.12771Z" fill="#FBBC04"/>
<path d="M0.5 10.7599L4.68109 14.9195L9.59094 19.8037V4.1278L7.04531 1.59557C4.34531 -1.08753 0.5 1.46293 0.5 5.9363V10.7597V10.7599Z" fill="#C5221F"/>
</g>
<defs>
<clipPath id="clip0_1290_1621">
<rect width="40" height="40" fill="white" transform="translate(0.5 0.5)"/>
</clipPath>
</defs>
</svg>
