<svg width="41" height="40" viewBox="0 0 41 40" fill="none" xmlns="http://www.w3.org/2000/svg">
<g clip-path="url(#clip0_1852_109)">
<path d="M9.59094 39.8049V19.3054L4.79797 13.4893L0.5 10.2617V36.1873C0.5 38.189 1.72266 39.8049 3.22734 39.8049H9.59094Z" fill="#4285F4"/>
<path d="M31.4082 39.8047H37.7718C39.281 39.8047 40.4991 38.1828 40.4991 36.1871V10.2617L35.631 13.9585L31.4082 19.3052V39.8047Z" fill="#34A853"/>
<path d="M9.59066 19.3048L8.93848 11.295L9.59066 3.62891L20.4997 14.4815L31.4088 3.62891L32.1383 10.8811L31.4088 19.3048L20.4997 30.1574L9.59066 19.3048Z" fill="#EA4335"/>
<path d="M31.4082 3.62771V19.3036L40.4991 10.2598V5.43641C40.4991 0.962838 36.6491 -1.58742 33.9538 1.09548L31.4082 3.62771Z" fill="#FBBC04"/>
<path d="M0.5 10.2599L4.68109 14.4195L9.59094 19.3037V3.6278L7.04531 1.09557C4.34531 -1.58753 0.5 0.962932 0.5 5.4363V10.2597V10.2599Z" fill="#C5221F"/>
</g>
<defs>
<clipPath id="clip0_1852_109">
<rect width="40" height="40" fill="white" transform="translate(0.5)"/>
</clipPath>
</defs>
</svg>
