<svg width="41" height="40" fill="none" xmlns="http://www.w3.org/2000/svg"><g clip-path="url(#a)"><path d="M31.125 0H9.875A9.375 9.375 0 0 0 .5 9.375v21.25A9.375 9.375 0 0 0 9.875 40h21.25a9.375 9.375 0 0 0 9.375-9.375V9.375A9.375 9.375 0 0 0 31.125 0z" fill="url(#b)"/><path d="M9.875.5h21.25A8.875 8.875 0 0 1 40 9.375v21.25a8.875 8.875 0 0 1-8.875 8.875H9.875A8.875 8.875 0 0 1 1 30.625V9.375A8.875 8.875 0 0 1 9.875.5z" fill="url(#c)" stroke="#fff"/><path d="M20.501 4.375c-4.243 0-4.776.019-6.442.094-1.664.077-2.8.34-3.793.726a7.65 7.65 0 0 0-2.768 1.802 7.67 7.67 0 0 0-1.803 2.768c-.388.993-.651 2.13-.726 3.792-.074 1.667-.094 2.2-.094 6.443 0 4.244.019 4.775.094 6.441.077 1.664.34 2.8.726 3.793.4 1.027.934 1.9 1.802 2.768a7.652 7.652 0 0 0 2.767 1.803c.995.386 2.13.65 3.793.726 1.667.076 2.2.094 6.443.094 4.243 0 4.774-.018 6.44-.094 1.664-.076 2.801-.34 3.795-.726a7.643 7.643 0 0 0 2.766-1.803 7.67 7.67 0 0 0 1.804-2.768c.384-.994.648-2.13.726-3.792.075-1.667.094-2.198.094-6.442 0-4.243-.02-4.776-.094-6.443-.078-1.663-.342-2.798-.726-3.792A7.669 7.669 0 0 0 33.5 6.997a7.633 7.633 0 0 0-2.767-1.802c-.996-.386-2.132-.65-3.795-.726-1.667-.075-2.198-.094-6.442-.094h.004zM19.1 7.191H20.5c4.172 0 4.667.015 6.314.09 1.524.07 2.35.324 2.901.538.73.283 1.25.621 1.796 1.169a4.85 4.85 0 0 1 1.17 1.796c.213.55.468 1.377.537 2.9.075 1.648.091 2.143.091 6.313s-.016 4.664-.09 6.311c-.07 1.524-.325 2.35-.539 2.9a4.831 4.831 0 0 1-1.169 1.796 4.832 4.832 0 0 1-1.796 1.168c-.55.215-1.377.47-2.9.539-1.648.075-2.143.091-6.315.091-4.172 0-4.666-.016-6.313-.091-1.524-.07-2.35-.325-2.902-.539a4.841 4.841 0 0 1-1.797-1.168 4.844 4.844 0 0 1-1.169-1.796c-.214-.55-.469-1.377-.538-2.9-.075-1.648-.09-2.143-.09-6.315 0-4.173.015-4.665.09-6.312.07-1.524.324-2.35.538-2.901a4.84 4.84 0 0 1 1.17-1.797 4.848 4.848 0 0 1 1.796-1.17c.551-.214 1.378-.468 2.902-.538 1.441-.065 2-.085 4.912-.088v.004zm9.742 2.594a1.875 1.875 0 1 0 0 3.75 1.875 1.875 0 0 0 0-3.75zm-8.34 2.19a8.025 8.025 0 1 0 0 16.05 8.025 8.025 0 0 0 0-16.05zm0 2.817a5.208 5.208 0 1 1 0 10.416 5.208 5.208 0 0 1 0-10.416z" fill="#fff"/></g><defs><radialGradient id="b" cx="0" cy="0" r="1" gradientUnits="userSpaceOnUse" gradientTransform="matrix(0 -39.643 36.8711 0 11.125 43.08)"><stop stop-color="#FD5"/><stop offset=".1" stop-color="#FD5"/><stop offset=".5" stop-color="#FF543E"/><stop offset="1" stop-color="#C837AB"/></radialGradient><radialGradient id="c" cx="0" cy="0" r="1" gradientUnits="userSpaceOnUse" gradientTransform="matrix(3.47805 17.37593 -71.62425 14.33664 -6.2 2.881)"><stop stop-color="#3771C8"/><stop offset=".128" stop-color="#3771C8"/><stop offset="1" stop-color="#60F" stop-opacity="0"/></radialGradient><clipPath id="a"><path fill="#fff" transform="translate(.5)" d="M0 0h40v40H0z"/></clipPath></defs></svg>