<svg width="41" height="40" fill="none" xmlns="http://www.w3.org/2000/svg"><g clip-path="url(#a)"><path d="M31.125 0H9.875A9.375 9.375 0 0 0 .5 9.375v21.25A9.375 9.375 0 0 0 9.875 40h21.25a9.375 9.375 0 0 0 9.375-9.375V9.375A9.375 9.375 0 0 0 31.125 0z" fill="#fff"/><path d="M9.875.5h21.25A8.875 8.875 0 0 1 40 9.375v21.25a8.875 8.875 0 0 1-8.875 8.875H9.875A8.875 8.875 0 0 1 1 30.625V9.375A8.875 8.875 0 0 1 9.875.5z" fill="#0A66C2" stroke="#fff"/><path d="M29.362 34.013h4.573a.625.625 0 0 0 .625-.625l.002-9.662c0-5.05-1.088-8.933-6.99-8.933a6.134 6.134 0 0 0-5.5 3.005.05.05 0 0 1-.094-.026v-1.888a.625.625 0 0 0-.625-.625h-4.34a.625.625 0 0 0-.625.625v17.504a.625.625 0 0 0 .625.625h4.573a.624.624 0 0 0 .625-.625v-8.652c0-2.447.464-4.816 3.497-4.816 2.99 0 3.029 2.8 3.029 4.974v8.494a.625.625 0 0 0 .625.625zM6.438 9.317a3.396 3.396 0 0 0 3.38 3.379 3.396 3.396 0 0 0 3.378-3.38 3.395 3.395 0 0 0-3.38-3.379 3.395 3.395 0 0 0-3.379 3.38zm1.087 24.696h4.58a.625.625 0 0 0 .624-.625V15.884a.625.625 0 0 0-.625-.625h-4.58a.625.625 0 0 0-.624.625v17.504a.625.625 0 0 0 .625.625z" fill="#fff"/></g><defs><clipPath id="a"><path fill="#fff" transform="translate(.5)" d="M0 0h40v40H0z"/></clipPath></defs></svg>