<svg width="41" height="40" fill="none" xmlns="http://www.w3.org/2000/svg"><g clip-path="url(#a)"><path d="M31.125 0H9.875A9.375 9.375 0 0 0 .5 9.375v21.25A9.375 9.375 0 0 0 9.875 40h21.25a9.375 9.375 0 0 0 9.375-9.375V9.375A9.375 9.375 0 0 0 31.125 0z" fill="#fff"/><path d="M9.875.5h21.25A8.875 8.875 0 0 1 40 9.375v21.25a8.875 8.875 0 0 1-8.875 8.875H9.875A8.875 8.875 0 0 1 1 30.625V9.375A8.875 8.875 0 0 1 9.875.5z" fill="#1D9BF0" stroke="#fff"/><path d="M31.683 14.283c.017.248.017.496.017.746 0 7.625-5.804 16.418-16.418 16.418v-.005a16.335 16.335 0 0 1-8.845-2.586 11.587 11.587 0 0 0 8.54-2.392 5.777 5.777 0 0 1-5.39-4.007 5.751 5.751 0 0 0 2.605-.1 5.77 5.77 0 0 1-4.629-5.655v-.073c.802.447 1.7.694 2.619.722a5.778 5.778 0 0 1-1.786-7.705 16.378 16.378 0 0 0 11.892 6.029 5.774 5.774 0 0 1 1.67-5.513 5.777 5.777 0 0 1 8.163.25 11.582 11.582 0 0 0 3.665-1.4 5.79 5.79 0 0 1-2.537 3.19c1.144-.134 2.26-.44 3.314-.908a11.723 11.723 0 0 1-2.88 2.989z" fill="#fff"/></g><defs><clipPath id="a"><path fill="#fff" transform="translate(.5)" d="M0 0h40v40H0z"/></clipPath></defs></svg>