<svg width="34" height="34" fill="none" xmlns="http://www.w3.org/2000/svg"><path d="M33.666 11.468a4.179 4.179 0 0 1-4.166 4.167 4.179 4.179 0 0 1-4.167-4.167 4.179 4.179 0 0 1-4.167 4.167A4.179 4.179 0 0 1 17 11.468a4.179 4.179 0 0 1-4.167 4.167 4.179 4.179 0 0 1-4.167-4.167A4.179 4.179 0 0 1 4.5 15.635a4.179 4.179 0 0 1-4.167-4.167L2.65 2.435s.483-1.8 2.183-1.8h24.333c1.7 0 2.184 1.8 2.184 1.8l2.316 9.033zM32 17.635v13c0 1.833-1.5 3.333-3.334 3.333H5.333A3.343 3.343 0 0 1 2 30.635v-13a6.6 6.6 0 0 0 6.666-.967 6.671 6.671 0 0 0 4.167 1.467c1.583 0 3.033-.55 4.167-1.467a6.671 6.671 0 0 0 4.166 1.467c1.584 0 3.034-.55 4.167-1.467a6.636 6.636 0 0 0 4.167 1.467c.883 0 1.733-.184 2.5-.5zm-3.334 8.55c0-.334 0-.684-.083-1.05l-.05-.267h-4.95v1.95H26.6c-.1.367-.234.733-.517 1.033-.55.55-1.3.85-2.1.85-.833 0-1.65-.35-2.25-.933-1.15-1.183-1.15-3.1.033-4.3 1.15-1.167 3.05-1.167 4.25-.05l.234.217 1.4-1.417-.267-.233a5.08 5.08 0 0 0-3.467-1.35H23.9c-1.35 0-2.617.516-3.567 1.45-.983.966-1.533 2.233-1.533 3.55 0 1.333.516 2.566 1.466 3.483a5.334 5.334 0 0 0 3.7 1.517H24c1.333 0 2.516-.484 3.383-1.334.783-.8 1.283-2 1.283-3.116z" fill="#000"/></svg>