<svg width="33" height="34" fill="none" xmlns="http://www.w3.org/2000/svg"><path d="M31.5 9.563a7.822 7.822 0 0 1-7.813-7.813.938.938 0 0 0-.937-.938H16.5a.938.938 0 0 0-.938.938v20.625a3.438 3.438 0 1 1-4.91-3.108.938.938 0 0 0 .536-.847v-6.67a.938.938 0 0 0-1.094-.923c-5.438.967-9.531 5.93-9.531 11.548a11.562 11.562 0 1 0 23.125 0v-6.73a15.825 15.825 0 0 0 7.812 2.043.938.938 0 0 0 .938-.938V10.5a.938.938 0 0 0-.938-.938zm-.938 6.218a13.925 13.925 0 0 1-7.265-2.608.938.938 0 0 0-1.485.764v8.438a9.687 9.687 0 1 1-19.375 0c0-4.331 2.886-8.2 6.876-9.434v4.926a5.312 5.312 0 1 0 8.124 4.508V2.687h4.42a9.702 9.702 0 0 0 8.706 8.705v4.39z" fill="#fff"/></svg>