<svg width="33" height="32" fill="none" xmlns="http://www.w3.org/2000/svg"><path d="M29.613.375H3.387A2.512 2.512 0 0 0 .875 2.887v26.226a2.512 2.512 0 0 0 2.512 2.512h26.226a2.512 2.512 0 0 0 2.512-2.512V2.887A2.512 2.512 0 0 0 29.613.375zm0 28.75c-17.492-.004-26.238-.008-26.238-.012.004-17.492.008-26.238.012-26.238 17.492.004 26.238.008 26.238.012-.004 17.492-.008 26.238-.012 26.238zM5.508 12.09h4.637v14.914H5.508V12.09zm2.32-2.04a2.69 2.69 0 0 0 1.9-4.587 2.687 2.687 0 0 0-4.587 1.9 2.682 2.682 0 0 0 2.687 2.688zm9.856 9.575c0-1.945.37-3.828 2.78-3.828 2.376 0 2.411 2.223 2.411 3.953v7.254h4.633v-8.18c0-4.015-.867-7.105-5.559-7.105-2.254 0-3.765 1.238-4.387 2.41H17.5v-2.04h-4.45v14.915h4.634v-7.379z" fill="#fff"/></svg>