<svg width="35" height="29" fill="none" xmlns="http://www.w3.org/2000/svg"><path fill-rule="evenodd" clip-rule="evenodd" d="M8.687.917a98.967 98.967 0 0 1 17.626 0l2.53.226A5.467 5.467 0 0 1 33.767 5.8a58.764 58.764 0 0 1 0 17 5.467 5.467 0 0 1-4.924 4.655l-2.53.227a98.964 98.964 0 0 1-17.626 0l-2.53-.227A5.467 5.467 0 0 1 1.233 22.8a58.762 58.762 0 0 1 0-17 5.467 5.467 0 0 1 4.924-4.657l2.53-.226zM7.26 5.7a1.25 1.25 0 0 0-1.843 1.1v15.833a1.25 1.25 0 1 0 2.5 0V8.893l8.99 4.84c.37.2.816.2 1.186 0l8.99-4.84v13.74a1.25 1.25 0 0 0 2.5 0V6.8a1.251 1.251 0 0 0-1.843-1.1L17.5 11.213 7.26 5.7z" fill="#000"/></svg>