<svg width="35" height="34" fill="none" xmlns="http://www.w3.org/2000/svg"><path d="M34.167 11.166a4.179 4.179 0 0 1-4.166 4.167 4.179 4.179 0 0 1-4.167-4.167 4.179 4.179 0 0 1-4.167 4.167 4.179 4.179 0 0 1-4.166-4.167 4.179 4.179 0 0 1-4.167 4.167 4.179 4.179 0 0 1-4.167-4.167 4.179 4.179 0 0 1-4.166 4.167 4.179 4.179 0 0 1-4.167-4.167l2.317-9.033s.483-1.8 2.183-1.8h24.333c1.7 0 2.184 1.8 2.184 1.8l2.316 9.033zm-1.666 6.167v13c0 1.833-1.5 3.333-3.334 3.333H5.834a3.343 3.343 0 0 1-3.333-3.333v-13a6.6 6.6 0 0 0 6.666-.967 6.671 6.671 0 0 0 4.167 1.467c1.583 0 3.033-.55 4.167-1.467a6.671 6.671 0 0 0 4.166 1.467c1.584 0 3.034-.55 4.167-1.467a6.636 6.636 0 0 0 4.167 1.467 6.56 6.56 0 0 0 2.5-.5zm-3.334 8.55c0-.333 0-.683-.083-1.05l-.05-.267h-4.95v1.95h3.017c-.1.367-.234.734-.517 1.034-.55.55-1.3.85-2.1.85-.833 0-1.65-.35-2.25-.934-1.15-1.183-1.15-3.1.033-4.3 1.15-1.166 3.05-1.166 4.25-.05l.234.217 1.4-1.417-.267-.233a5.08 5.08 0 0 0-3.467-1.35h-.016c-1.35 0-2.617.517-3.567 1.45-.983.967-1.533 2.233-1.533 3.55 0 1.333.516 2.567 1.466 3.483a5.334 5.334 0 0 0 3.7 1.517h.034c1.333 0 2.516-.483 3.383-1.333.783-.8 1.283-2 1.283-3.117z" fill="#fff"/></svg>