<svg width="32" height="34" fill="none" xmlns="http://www.w3.org/2000/svg"><path d="M31 8.863a7.822 7.822 0 0 1-7.813-7.812.938.938 0 0 0-.937-.938H16a.938.938 0 0 0-.938.938v20.625a3.438 3.438 0 1 1-4.91-3.108.938.938 0 0 0 .536-.847v-6.67a.938.938 0 0 0-1.094-.924C4.156 11.094.063 16.06.063 21.676a11.563 11.563 0 0 0 23.125 0v-6.73A15.825 15.825 0 0 0 31 16.988a.938.938 0 0 0 .938-.937V9.8A.938.938 0 0 0 31 8.863zm-.938 6.219a13.925 13.925 0 0 1-7.265-2.608.939.939 0 0 0-1.485.764v8.438a9.687 9.687 0 1 1-19.375 0c0-4.331 2.886-8.2 6.875-9.435v4.927a5.312 5.312 0 1 0 8.126 4.508V1.988h4.42a9.702 9.702 0 0 0 8.704 8.705v4.389z" fill="#000"/></svg>