<svg width="67" height="60" viewBox="0 0 67 60" fill="none" xmlns="http://www.w3.org/2000/svg">
<path d="M33.6673 0C33.6673 0 13.0473 17.8 1.52398 27.44C1.15731 27.7595 0.861884 28.1525 0.656879 28.5935C0.451873 29.0345 0.341863 29.5137 0.333984 30C0.333984 30.8841 0.685174 31.7319 1.31029 32.357C1.93542 32.9821 2.78326 33.3333 3.66732 33.3333H10.334V56.6667C10.334 57.5507 10.6852 58.3986 11.3103 59.0237C11.9354 59.6488 12.7833 60 13.6673 60H23.6673C24.5514 60 25.3992 59.6488 26.0243 59.0237C26.6495 58.3986 27.0007 57.5507 27.0007 56.6667V43.3333H40.334V56.6667C40.334 57.5507 40.6852 58.3986 41.3103 59.0237C41.9354 59.6488 42.7833 60 43.6673 60H53.6673C54.5514 60 55.3992 59.6488 56.0243 59.0237C56.6495 58.3986 57.0006 57.5507 57.0006 56.6667V33.3333H63.6673C64.5514 33.3333 65.3992 32.9821 66.0243 32.357C66.6495 31.7319 67.0006 30.8841 67.0006 30C66.996 29.5044 66.8786 29.0163 66.6574 28.5728C66.4362 28.1293 66.117 27.7419 65.724 27.44C54.2807 17.8 33.6673 0 33.6673 0Z" fill="white"/>
</svg>
